<?xml version="1.0" encoding="UTF-8"?><svg xmlns:svg="http://www.w3.org/2000/svg" xmlns="http://www.w3.org/2000/svg" xmlns:xlink="http://www.w3.org/1999/xlink" version="2.0" width="1200" height="2980" ><style >
svg {
  font-family: Helvetica, Arial, sans-serif;
  font-size: 11px;
}
rect {
  stroke-linecap: butt;
  stroke-width: 3;
  stroke: #fff;
/*  stroke-opacity: 1; */
}
rect:hover {
  stroke: #fff;
/*  stroke-opacity: 1; /*
}
polygon { fill: #000; }</style><defs ><polygon id="ahead" points="0 0, -12 4, -12 -4" /><filter id="glow" x="0" y="0" ><feGaussianBlur in="SourceAlpha" stdDeviation="2" result="blurred" /><feFlood flood-color="#fff" /><feComposite operator="in" in2="blurred" /><feComponentTransfer ><feFuncA type="linear" slope="10" intercept="0" /></feComponentTransfer><feMerge ><feMergeNode /><feMergeNode in="SourceGraphic" /></feMerge></filter></defs><g ><text x="28.571428" y="20.0" text-anchor="middle" alignment-baseline="middle" fill="#000" >c6</text><text x="28.571428" y="1020.0" text-anchor="middle" alignment-baseline="middle" fill="#aaa" >c6</text><text x="28.571428" y="2020.0" text-anchor="middle" alignment-baseline="middle" fill="#aaa" >c6</text><text x="85.71429" y="20.0" text-anchor="middle" alignment-baseline="middle" fill="#000" >c7</text><text x="85.71429" y="1020.0" text-anchor="middle" alignment-baseline="middle" fill="#aaa" >c7</text><text x="85.71429" y="2020.0" text-anchor="middle" alignment-baseline="middle" fill="#aaa" >c7</text><text x="142.85715" y="20.0" text-anchor="middle" alignment-baseline="middle" fill="#000" >c8</text><text x="142.85715" y="1020.0" text-anchor="middle" alignment-baseline="middle" fill="#aaa" >c8</text><text x="142.85715" y="2020.0" text-anchor="middle" alignment-baseline="middle" fill="#aaa" >c8</text><text x="200.0" y="20.0" text-anchor="middle" alignment-baseline="middle" fill="#000" >c9</text><text x="200.0" y="1020.0" text-anchor="middle" alignment-baseline="middle" fill="#aaa" >c9</text><text x="200.0" y="2020.0" text-anchor="middle" alignment-baseline="middle" fill="#aaa" >c9</text><text x="257.14285" y="20.0" text-anchor="middle" alignment-baseline="middle" fill="#000" >c10</text><text x="257.14285" y="1020.0" text-anchor="middle" alignment-baseline="middle" fill="#aaa" >c10</text><text x="257.14285" y="2020.0" text-anchor="middle" alignment-baseline="middle" fill="#aaa" >c10</text><text x="314.2857" y="20.0" text-anchor="middle" alignment-baseline="middle" fill="#000" >c11</text><text x="314.2857" y="1020.0" text-anchor="middle" alignment-baseline="middle" fill="#aaa" >c11</text><text x="314.2857" y="2020.0" text-anchor="middle" alignment-baseline="middle" fill="#aaa" >c11</text><text x="371.42856" y="20.0" text-anchor="middle" alignment-baseline="middle" fill="#000" >c12</text><text x="371.42856" y="1020.0" text-anchor="middle" alignment-baseline="middle" fill="#aaa" >c12</text><text x="371.42856" y="2020.0" text-anchor="middle" alignment-baseline="middle" fill="#aaa" >c12</text><text x="428.57144" y="20.0" text-anchor="middle" alignment-baseline="middle" fill="#000" >c13</text><text x="428.57144" y="1020.0" text-anchor="middle" alignment-baseline="middle" fill="#aaa" >c13</text><text x="428.57144" y="2020.0" text-anchor="middle" alignment-baseline="middle" fill="#aaa" >c13</text><text x="485.7143" y="20.0" text-anchor="middle" alignment-baseline="middle" fill="#000" >c14</text><text x="485.7143" y="1020.0" text-anchor="middle" alignment-baseline="middle" fill="#aaa" >c14</text><text x="485.7143" y="2020.0" text-anchor="middle" alignment-baseline="middle" fill="#aaa" >c14</text><text x="542.8571" y="20.0" text-anchor="middle" alignment-baseline="middle" fill="#000" >c15</text><text x="542.8571" y="1020.0" text-anchor="middle" alignment-baseline="middle" fill="#aaa" >c15</text><text x="542.8571" y="2020.0" text-anchor="middle" alignment-baseline="middle" fill="#aaa" >c15</text><text x="600.0" y="20.0" text-anchor="middle" alignment-baseline="middle" fill="#000" >c16</text><text x="600.0" y="1020.0" text-anchor="middle" alignment-baseline="middle" fill="#aaa" >c16</text><text x="600.0" y="2020.0" text-anchor="middle" alignment-baseline="middle" fill="#aaa" >c16</text><text x="657.1429" y="20.0" text-anchor="middle" alignment-baseline="middle" fill="#000" >c17</text><text x="657.1429" y="1020.0" text-anchor="middle" alignment-baseline="middle" fill="#aaa" >c17</text><text x="657.1429" y="2020.0" text-anchor="middle" alignment-baseline="middle" fill="#aaa" >c17</text><text x="714.2857" y="20.0" text-anchor="middle" alignment-baseline="middle" fill="#000" >c18</text><text x="714.2857" y="1020.0" text-anchor="middle" alignment-baseline="middle" fill="#aaa" >c18</text><text x="714.2857" y="2020.0" text-anchor="middle" alignment-baseline="middle" fill="#aaa" >c18</text><text x="771.4286" y="20.0" text-anchor="middle" alignment-baseline="middle" fill="#000" >c19</text><text x="771.4286" y="1020.0" text-anchor="middle" alignment-baseline="middle" fill="#aaa" >c19</text><text x="771.4286" y="2020.0" text-anchor="middle" alignment-baseline="middle" fill="#aaa" >c19</text><text x="828.5714" y="20.0" text-anchor="middle" alignment-baseline="middle" fill="#000" >c20</text><text x="828.5714" y="1020.0" text-anchor="middle" alignment-baseline="middle" fill="#aaa" >c20</text><text x="828.5714" y="2020.0" text-anchor="middle" alignment-baseline="middle" fill="#aaa" >c20</text><text x="885.7143" y="20.0" text-anchor="middle" alignment-baseline="middle" fill="#000" >c21</text><text x="885.7143" y="1020.0" text-anchor="middle" alignment-baseline="middle" fill="#aaa" >c21</text><text x="885.7143" y="2020.0" text-anchor="middle" alignment-baseline="middle" fill="#aaa" >c21</text><text x="942.8571" y="20.0" text-anchor="middle" alignment-baseline="middle" fill="#000" >c22</text><text x="942.8571" y="1020.0" text-anchor="middle" alignment-baseline="middle" fill="#aaa" >c22</text><text x="942.8571" y="2020.0" text-anchor="middle" alignment-baseline="middle" fill="#aaa" >c22</text><text x="1000.0" y="20.0" text-anchor="middle" alignment-baseline="middle" fill="#000" >n0</text><text x="1000.0" y="1020.0" text-anchor="middle" alignment-baseline="middle" fill="#aaa" >n0</text><text x="1000.0" y="2020.0" text-anchor="middle" alignment-baseline="middle" fill="#aaa" >n0</text><text x="1057.1428" y="20.0" text-anchor="middle" alignment-baseline="middle" fill="#000" >n1</text><text x="1057.1428" y="1020.0" text-anchor="middle" alignment-baseline="middle" fill="#aaa" >n1</text><text x="1057.1428" y="2020.0" text-anchor="middle" alignment-baseline="middle" fill="#aaa" >n1</text><text x="1114.2858" y="20.0" text-anchor="middle" alignment-baseline="middle" fill="#000" >n2</text><text x="1114.2858" y="1020.0" text-anchor="middle" alignment-baseline="middle" fill="#aaa" >n2</text><text x="1114.2858" y="2020.0" text-anchor="middle" alignment-baseline="middle" fill="#aaa" >n2</text><text x="1171.4286" y="20.0" text-anchor="middle" alignment-baseline="middle" fill="#000" >seq-kv</text><text x="1171.4286" y="1020.0" text-anchor="middle" alignment-baseline="middle" fill="#aaa" >seq-kv</text><text x="1171.4286" y="2020.0" text-anchor="middle" alignment-baseline="middle" fill="#aaa" >seq-kv</text></g><g ><line stroke="#ccc" x1="28.571428" y1="30.0" x2="28.571428" y2="2890.0" /><line stroke="#ccc" x1="85.71429" y1="30.0" x2="85.71429" y2="2890.0" /><line stroke="#ccc" x1="142.85715" y1="30.0" x2="142.85715" y2="2890.0" /><line stroke="#ccc" x1="200.0" y1="30.0" x2="200.0" y2="2890.0" /><line stroke="#ccc" x1="257.14285" y1="30.0" x2="257.14285" y2="2890.0" /><line stroke="#ccc" x1="314.2857" y1="30.0" x2="314.2857" y2="2890.0" /><line stroke="#ccc" x1="371.42856" y1="30.0" x2="371.42856" y2="2890.0" /><line stroke="#ccc" x1="428.57144" y1="30.0" x2="428.57144" y2="2890.0" /><line stroke="#ccc" x1="485.7143" y1="30.0" x2="485.7143" y2="2890.0" /><line stroke="#ccc" x1="542.8571" y1="30.0" x2="542.8571" y2="2890.0" /><line stroke="#ccc" x1="600.0" y1="30.0" x2="600.0" y2="2890.0" /><line stroke="#ccc" x1="657.1429" y1="30.0" x2="657.1429" y2="2890.0" /><line stroke="#ccc" x1="714.2857" y1="30.0" x2="714.2857" y2="2890.0" /><line stroke="#ccc" x1="771.4286" y1="30.0" x2="771.4286" y2="2890.0" /><line stroke="#ccc" x1="828.5714" y1="30.0" x2="828.5714" y2="2890.0" /><line stroke="#ccc" x1="885.7143" y1="30.0" x2="885.7143" y2="2890.0" /><line stroke="#ccc" x1="942.8571" y1="30.0" x2="942.8571" y2="2890.0" /><line stroke="#ccc" x1="1000.0" y1="30.0" x2="1000.0" y2="2890.0" /><line stroke="#ccc" x1="1057.1428" y1="30.0" x2="1057.1428" y2="2890.0" /><line stroke="#ccc" x1="1114.2858" y1="30.0" x2="1114.2858" y2="2890.0" /><line stroke="#ccc" x1="1171.4286" y1="30.0" x2="1171.4286" y2="2890.0" /></g><g ><g transform="translate(85.71429 50.0) rotate(2.227046856611658) " ><rect x="0" y="-2.5" height="5" width="1025.3489636913896" fill="#81BFFC" ><title >c7 → n2 {:type "read", :msg_id 1}</title></rect><use xlink:href="#ahead" x="1029.3489636913896" y="0" /><text text-anchor="middle" x="514.6744818456948" y="-4" transform="" filter="url(#glow)" style="fill: #fff" >read {}</text><text text-anchor="middle" x="514.6744818456948" y="-4" transform="" >read {}</text></g><g transform="translate(28.571428 70.0) rotate(2.3579059700562746) " ><rect x="0" y="-2.5" height="5" width="968.2517523343126" fill="#81BFFC" ><title >c6 → n0 {:delta 4, :type "add", :msg_id 1}</title></rect><use xlink:href="#ahead" x="972.2517523343126" y="0" /><text text-anchor="middle" x="486.1258761671563" y="-4" transform="" filter="url(#glow)" style="fill: #fff" >add {:delta 4}</text><text text-anchor="middle" x="486.1258761671563" y="-4" transform="" >add {:delta 4}</text></g><g transform="translate(1000.0 150.0) rotate(6.654424375154429) " ><rect x="0" y="-2.5" height="5" width="168.5913122987226" fill="#000" ><title >n0 → seq-kv {:key "key", :msg_id 1, :type "read"}</title></rect><use xlink:href="#ahead" x="172.5913122987226" y="0" /><text text-anchor="middle" x="86.2956561493613" y="-4" transform="" filter="url(#glow)" style="fill: #fff" >read {:key "key"}</text><text text-anchor="middle" x="86.2956561493613" y="-4" transform="" >read {:key "key"}</text></g><g transform="translate(1114.2858 130.0) rotate(54.4623387481628) " ><rect x="0" y="-2.5" height="5" width="94.31226849422613" fill="#000" ><title >n2 → seq-kv {:key "key", :msg_id 1, :type "read"}</title></rect><use xlink:href="#ahead" x="98.31226849422613" y="0" /><text text-anchor="middle" x="49.156134247113066" y="-4" transform="" filter="url(#glow)" style="fill: #fff" >read {:key "key"}</text><text text-anchor="middle" x="49.156134247113066" y="-4" transform="" >read {:key "key"}</text></g><g transform="translate(1171.4286 190.0) rotate(166.86597898335057) " ><rect x="0" y="-2.5" height="5" width="172.03340899100718" fill="#FF1E90" ><title >seq-kv → n0 {:type "error", :code 20, :text "key does not exist", :in_reply_to 1}</title></rect><use xlink:href="#ahead" x="176.03340899100718" y="0" /><text text-anchor="middle" x="88.01670449550359" y="-4" transform="rotate(180 88.01670449550359 0)" filter="url(#glow)" style="fill: #fff" >error key does not exist</text><text text-anchor="middle" x="88.01670449550359" y="-4" transform="rotate(180 88.01670449550359 0)" >error key does not exist</text></g><g transform="translate(1171.4286 250.0) rotate(160.7099428768419) " ><rect x="0" y="-2.5" height="5" width="56.54173879631149" fill="#FF1E90" ><title >seq-kv → n2 {:type "error", :code 20, :text "key does not exist", :in_reply_to 1}</title></rect><use xlink:href="#ahead" x="60.54173879631149" y="0" /><text text-anchor="middle" x="30.270869398155746" y="-4" transform="rotate(180 30.270869398155746 0)" filter="url(#glow)" style="fill: #fff" >error key does not exist</text><text text-anchor="middle" x="30.270869398155746" y="-4" transform="rotate(180 30.270869398155746 0)" >error key does not exist</text></g><g transform="translate(1114.2858 290.0) rotate(177.77295314338835) " ><rect x="0" y="-2.5" height="5" width="1025.3489636913896" fill="#81BFFC" ><title >n2 → c7 {:in_reply_to 1, :type "read_ok", :value 0}</title></rect><use xlink:href="#ahead" x="1029.3489636913896" y="0" /><text text-anchor="middle" x="514.6744818456948" y="-4" transform="rotate(180 514.6744818456948 0)" filter="url(#glow)" style="fill: #fff" >read_ok {:value 0}</text><text text-anchor="middle" x="514.6744818456948" y="-4" transform="rotate(180 514.6744818456948 0)" >read_ok {:value 0}</text></g><g transform="translate(1000.0 310.0) rotate(13.13402101664945) " ><rect x="0" y="-2.5" height="5" width="172.03340899100718" fill="#000" ><title >n0 → seq-kv {:create_if_not_exists true, :from 0, :key "key", :msg_id 2, :to 4, :type "cas"}</title></rect><use xlink:href="#ahead" x="176.03340899100718" y="0" /><text text-anchor="middle" x="88.01670449550359" y="-4" transform="" filter="url(#glow)" style="fill: #fff" >cas {:create_if_not_exists true, :from 0, :key …</text><text text-anchor="middle" x="88.01670449550359" y="-4" transform="" >cas {:create_if_not_exists true, :from 0, :key …</text></g><g transform="translate(1171.4286 370.0) rotate(173.34557562484557) " ><rect x="0" y="-2.5" height="5" width="168.5913122987226" fill="#000" ><title >seq-kv → n0 {:type "cas_ok", :in_reply_to 2}</title></rect><use xlink:href="#ahead" x="172.5913122987226" y="0" /><text text-anchor="middle" x="86.2956561493613" y="-4" transform="rotate(180 86.2956561493613 0)" filter="url(#glow)" style="fill: #fff" >cas_ok {}</text><text text-anchor="middle" x="86.2956561493613" y="-4" transform="rotate(180 86.2956561493613 0)" >cas_ok {}</text></g><g transform="translate(1000.0 410.0) rotate(178.82054763848302) " ><rect x="0" y="-2.5" height="5" width="967.634432241438" fill="#81BFFC" ><title >n0 → c6 {:in_reply_to 1, :type "add_ok"}</title></rect><use xlink:href="#ahead" x="971.634432241438" y="0" /><text text-anchor="middle" x="485.817216120719" y="-4" transform="rotate(180 485.817216120719 0)" filter="url(#glow)" style="fill: #fff" >add_ok {}</text><text text-anchor="middle" x="485.817216120719" y="-4" transform="rotate(180 485.817216120719 0)" >add_ok {}</text></g><g transform="translate(28.571428 450.0) rotate(1.1794523615169823) " ><rect x="0" y="-2.5" height="5" width="967.634432241438" fill="#81BFFC" ><title >c6 → n0 {:delta 2, :type "add", :msg_id 2}</title></rect><use xlink:href="#ahead" x="971.634432241438" y="0" /><text text-anchor="middle" x="485.817216120719" y="-4" transform="" filter="url(#glow)" style="fill: #fff" >add {:delta 2}</text><text text-anchor="middle" x="485.817216120719" y="-4" transform="" >add {:delta 2}</text></g><g transform="translate(1000.0 510.0) rotate(6.654424375154429) " ><rect x="0" y="-2.5" height="5" width="168.5913122987226" fill="#000" ><title >n0 → seq-kv {:key "key", :msg_id 3, :type "read"}</title></rect><use xlink:href="#ahead" x="172.5913122987226" y="0" /><text text-anchor="middle" x="86.2956561493613" y="-4" transform="" filter="url(#glow)" style="fill: #fff" >read {:key "key"}</text><text text-anchor="middle" x="86.2956561493613" y="-4" transform="" >read {:key "key"}</text></g><g transform="translate(142.85715 490.0) rotate(3.7546518887907685) " ><rect x="0" y="-2.5" height="5" width="912.252310010453" fill="#81BFFC" ><title >c8 → n1 {:type "read", :msg_id 1}</title></rect><use xlink:href="#ahead" x="916.252310010453" y="0" /><text text-anchor="middle" x="458.1261550052265" y="-4" transform="" filter="url(#glow)" style="fill: #fff" >read {}</text><text text-anchor="middle" x="458.1261550052265" y="-4" transform="" >read {}</text></g><g transform="translate(1171.4286 570.0) rotate(173.34557562484557) " ><rect x="0" y="-2.5" height="5" width="168.5913122987226" fill="#000" ><title >seq-kv → n0 {:type "read_ok", :value 4, :in_reply_to 3}</title></rect><use xlink:href="#ahead" x="172.5913122987226" y="0" /><text text-anchor="middle" x="86.2956561493613" y="-4" transform="rotate(180 86.2956561493613 0)" filter="url(#glow)" style="fill: #fff" >read_ok {:value 4}</text><text text-anchor="middle" x="86.2956561493613" y="-4" transform="rotate(180 86.2956561493613 0)" >read_ok {:value 4}</text></g><g transform="translate(85.71429 610.0) rotate(2.227046856611658) " ><rect x="0" y="-2.5" height="5" width="1025.3489636913896" fill="#81BFFC" ><title >c7 → n2 {:delta 1, :type "add", :msg_id 2}</title></rect><use xlink:href="#ahead" x="1029.3489636913896" y="0" /><text text-anchor="middle" x="514.6744818456948" y="-4" transform="" filter="url(#glow)" style="fill: #fff" >add {:delta 1}</text><text text-anchor="middle" x="514.6744818456948" y="-4" transform="" >add {:delta 1}</text></g><g transform="translate(1057.1428 630.0) rotate(19.29003804121947) " ><rect x="0" y="-2.5" height="5" width="117.08359280970654" fill="#000" ><title >n1 → seq-kv {:key "key", :msg_id 1, :type "read"}</title></rect><use xlink:href="#ahead" x="121.08359280970654" y="0" /><text text-anchor="middle" x="60.54179640485327" y="-4" transform="" filter="url(#glow)" style="fill: #fff" >read {:key "key"}</text><text text-anchor="middle" x="60.54179640485327" y="-4" transform="" >read {:key "key"}</text></g><g transform="translate(1171.4286 690.0) rotate(170.07375894684506) " ><rect x="0" y="-2.5" height="5" width="112.0225686998302" fill="#FF1E90" ><title >seq-kv → n1 {:type "error", :code 20, :text "key does not exist", :in_reply_to 1}</title></rect><use xlink:href="#ahead" x="116.0225686998302" y="0" /><text text-anchor="middle" x="58.0112843499151" y="-4" transform="rotate(180 58.0112843499151 0)" filter="url(#glow)" style="fill: #fff" >error key does not exist</text><text text-anchor="middle" x="58.0112843499151" y="-4" transform="rotate(180 58.0112843499151 0)" >error key does not exist</text></g><g transform="translate(1114.2858 730.0) rotate(19.29005712315813) " ><rect x="0" y="-2.5" height="5" width="56.54173879631149" fill="#000" ><title >n2 → seq-kv {:key "key", :msg_id 2, :type "read"}</title></rect><use xlink:href="#ahead" x="60.54173879631149" y="0" /><text text-anchor="middle" x="30.270869398155746" y="-4" transform="" filter="url(#glow)" style="fill: #fff" >read {:key "key"}</text><text text-anchor="middle" x="30.270869398155746" y="-4" transform="" >read {:key "key"}</text></g><g transform="translate(1057.1428 770.0) rotate(177.4949070253886) " ><rect x="0" y="-2.5" height="5" width="911.1602567853847" fill="#81BFFC" ><title >n1 → c8 {:in_reply_to 1, :type "read_ok", :value 0}</title></rect><use xlink:href="#ahead" x="915.1602567853847" y="0" /><text text-anchor="middle" x="457.58012839269236" y="-4" transform="rotate(180 457.58012839269236 0)" filter="url(#glow)" style="fill: #fff" >read_ok {:value 0}</text><text text-anchor="middle" x="457.58012839269236" y="-4" transform="rotate(180 457.58012839269236 0)" >read_ok {:value 0}</text></g><g transform="translate(1171.4286 790.0) rotate(145.00796337230847) " ><rect x="0" y="-2.5" height="5" width="65.75171780308216" fill="#FF1E90" ><title >seq-kv → n2 {:type "error", :code 20, :text "key does not exist", :in_reply_to 2}</title></rect><use xlink:href="#ahead" x="69.75171780308216" y="0" /><text text-anchor="middle" x="34.87585890154108" y="-4" transform="rotate(180 34.87585890154108 0)" filter="url(#glow)" style="fill: #fff" >error key does not exist</text><text text-anchor="middle" x="34.87585890154108" y="-4" transform="rotate(180 34.87585890154108 0)" >error key does not exist</text></g><g transform="translate(1114.2858 850.0) rotate(19.29005712315813) " ><rect x="0" y="-2.5" height="5" width="56.54173879631149" fill="#000" ><title >n2 → seq-kv {:create_if_not_exists true, :from 0, :key "key", :msg_id 3, :to 1, :type "cas"}</title></rect><use xlink:href="#ahead" x="60.54173879631149" y="0" /><text text-anchor="middle" x="30.270869398155746" y="-4" transform="" filter="url(#glow)" style="fill: #fff" >cas {:create_if_not_exists true, :from 0, :key …</text><text text-anchor="middle" x="30.270869398155746" y="-4" transform="" >cas {:create_if_not_exists true, :from 0, :key …</text></g><g transform="translate(142.85715 890.0) rotate(1.2531453729050288) " ><rect x="0" y="-2.5" height="5" width="910.5043988956485" fill="#81BFFC" ><title >c8 → n1 {:delta 2, :type "add", :msg_id 2}</title></rect><use xlink:href="#ahead" x="914.5043988956485" y="0" /><text text-anchor="middle" x="457.25219944782424" y="-4" transform="" filter="url(#glow)" style="fill: #fff" >add {:delta 2}</text><text text-anchor="middle" x="457.25219944782424" y="-4" transform="" >add {:delta 2}</text></g><g transform="translate(1171.4286 930.0) rotate(160.7099428768419) " ><rect x="0" y="-2.5" height="5" width="56.54173879631149" fill="#FF1E90" ><title >seq-kv → n2 {:type "error", :code 22, :text "current value 4 is not 0", :in_reply_to 3}</title></rect><use xlink:href="#ahead" x="60.54173879631149" y="0" /><text text-anchor="middle" x="30.270869398155746" y="-4" transform="rotate(180 30.270869398155746 0)" filter="url(#glow)" style="fill: #fff" >error current value 4 is not 0</text><text text-anchor="middle" x="30.270869398155746" y="-4" transform="rotate(180 30.270869398155746 0)" >error current value 4 is not 0</text></g><g transform="translate(1057.1428 970.0) rotate(19.29003804121947) " ><rect x="0" y="-2.5" height="5" width="117.08359280970654" fill="#000" ><title >n1 → seq-kv {:key "key", :msg_id 2, :type "read"}</title></rect><use xlink:href="#ahead" x="121.08359280970654" y="0" /><text text-anchor="middle" x="60.54179640485327" y="-4" transform="" filter="url(#glow)" style="fill: #fff" >read {:key "key"}</text><text text-anchor="middle" x="60.54179640485327" y="-4" transform="" >read {:key "key"}</text></g><g transform="translate(1114.2858 990.0) rotate(177.77295314338835) " ><rect x="0" y="-2.5" height="5" width="1025.3489636913896" fill="#FF1E90" ><title >n2 → c7 {:code 22, :in_reply_to 2, :text "current value 4 is not 0", :type "error"}</title></rect><use xlink:href="#ahead" x="1029.3489636913896" y="0" /><text text-anchor="middle" x="514.6744818456948" y="-4" transform="rotate(180 514.6744818456948 0)" filter="url(#glow)" style="fill: #fff" >error current value 4 is not 0</text><text text-anchor="middle" x="514.6744818456948" y="-4" transform="rotate(180 514.6744818456948 0)" >error current value 4 is not 0</text></g><g transform="translate(1171.4286 1050.0) rotate(170.07375894684506) " ><rect x="0" y="-2.5" height="5" width="112.0225686998302" fill="#FF1E90" ><title >seq-kv → n1 {:type "error", :code 20, :text "key does not exist", :in_reply_to 2}</title></rect><use xlink:href="#ahead" x="116.0225686998302" y="0" /><text text-anchor="middle" x="58.0112843499151" y="-4" transform="rotate(180 58.0112843499151 0)" filter="url(#glow)" style="fill: #fff" >error key does not exist</text><text text-anchor="middle" x="58.0112843499151" y="-4" transform="rotate(180 58.0112843499151 0)" >error key does not exist</text></g><g transform="translate(1057.1428 1090.0) rotate(9.92624105315496) " ><rect x="0" y="-2.5" height="5" width="112.0225686998302" fill="#000" ><title >n1 → seq-kv {:create_if_not_exists true, :from 0, :key "key", :msg_id 3, :to 2, :type "cas"}</title></rect><use xlink:href="#ahead" x="116.0225686998302" y="0" /><text text-anchor="middle" x="58.0112843499151" y="-4" transform="" filter="url(#glow)" style="fill: #fff" >cas {:create_if_not_exists true, :from 0, :key …</text><text text-anchor="middle" x="58.0112843499151" y="-4" transform="" >cas {:create_if_not_exists true, :from 0, :key …</text></g><g transform="translate(1171.4286 1130.0) rotate(170.07375894684506) " ><rect x="0" y="-2.5" height="5" width="112.0225686998302" fill="#FF1E90" ><title >seq-kv → n1 {:type "error", :code 22, :text "current value 4 is not 0", :in_reply_to 3}</title></rect><use xlink:href="#ahead" x="116.0225686998302" y="0" /><text text-anchor="middle" x="58.0112843499151" y="-4" transform="rotate(180 58.0112843499151 0)" filter="url(#glow)" style="fill: #fff" >error current value 4 is not 0</text><text text-anchor="middle" x="58.0112843499151" y="-4" transform="rotate(180 58.0112843499151 0)" >error current value 4 is not 0</text></g><g transform="translate(1057.1428 1170.0) rotate(178.746854627095) " ><rect x="0" y="-2.5" height="5" width="910.5043988956485" fill="#FF1E90" ><title >n1 → c8 {:code 22, :in_reply_to 2, :text "current value 4 is not 0", :type "error"}</title></rect><use xlink:href="#ahead" x="914.5043988956485" y="0" /><text text-anchor="middle" x="457.25219944782424" y="-4" transform="rotate(180 457.25219944782424 0)" filter="url(#glow)" style="fill: #fff" >error current value 4 is not 0</text><text text-anchor="middle" x="457.25219944782424" y="-4" transform="rotate(180 457.25219944782424 0)" >error current value 4 is not 0</text></g><g transform="translate(200.0 1210.0) rotate(1.3366590326981767) " ><rect x="0" y="-2.5" height="5" width="853.3761238578322" fill="#81BFFC" ><title >c9 → n1 {:delta 3, :type "add", :msg_id 1}</title></rect><use xlink:href="#ahead" x="857.3761238578322" y="0" /><text text-anchor="middle" x="428.6880619289161" y="-4" transform="" filter="url(#glow)" style="fill: #fff" >add {:delta 3}</text><text text-anchor="middle" x="428.6880619289161" y="-4" transform="" >add {:delta 3}</text></g><g transform="translate(1057.1428 1250.0) rotate(9.92624105315496) " ><rect x="0" y="-2.5" height="5" width="112.0225686998302" fill="#000" ><title >n1 → seq-kv {:key "key", :msg_id 4, :type "read"}</title></rect><use xlink:href="#ahead" x="116.0225686998302" y="0" /><text text-anchor="middle" x="58.0112843499151" y="-4" transform="" filter="url(#glow)" style="fill: #fff" >read {:key "key"}</text><text text-anchor="middle" x="58.0112843499151" y="-4" transform="" >read {:key "key"}</text></g><g transform="translate(1171.4286 1290.0) rotate(170.07375894684506) " ><rect x="0" y="-2.5" height="5" width="112.0225686998302" fill="#000" ><title >seq-kv → n1 {:type "read_ok", :value 4, :in_reply_to 4}</title></rect><use xlink:href="#ahead" x="116.0225686998302" y="0" /><text text-anchor="middle" x="58.0112843499151" y="-4" transform="rotate(180 58.0112843499151 0)" filter="url(#glow)" style="fill: #fff" >read_ok {:value 4}</text><text text-anchor="middle" x="58.0112843499151" y="-4" transform="rotate(180 58.0112843499151 0)" >read_ok {:value 4}</text></g><g transform="translate(257.14285 1330.0) rotate(1.3366588899793947) " ><rect x="0" y="-2.5" height="5" width="853.3762153856541" fill="#81BFFC" ><title >c10 → n2 {:type "read", :msg_id 1}</title></rect><use xlink:href="#ahead" x="857.3762153856541" y="0" /><text text-anchor="middle" x="428.68810769282703" y="-4" transform="" filter="url(#glow)" style="fill: #fff" >read {}</text><text text-anchor="middle" x="428.68810769282703" y="-4" transform="" >read {}</text></g><g transform="translate(1114.2858 1370.0) rotate(19.29005712315813) " ><rect x="0" y="-2.5" height="5" width="56.54173879631149" fill="#000" ><title >n2 → seq-kv {:key "key", :msg_id 4, :type "read"}</title></rect><use xlink:href="#ahead" x="60.54173879631149" y="0" /><text text-anchor="middle" x="30.270869398155746" y="-4" transform="" filter="url(#glow)" style="fill: #fff" >read {:key "key"}</text><text text-anchor="middle" x="30.270869398155746" y="-4" transform="" >read {:key "key"}</text></g><g transform="translate(1171.4286 1410.0) rotate(160.7099428768419) " ><rect x="0" y="-2.5" height="5" width="56.54173879631149" fill="#000" ><title >seq-kv → n2 {:type "read_ok", :value 4, :in_reply_to 4}</title></rect><use xlink:href="#ahead" x="60.54173879631149" y="0" /><text text-anchor="middle" x="30.270869398155746" y="-4" transform="rotate(180 30.270869398155746 0)" filter="url(#glow)" style="fill: #fff" >read_ok {:value 4}</text><text text-anchor="middle" x="30.270869398155746" y="-4" transform="rotate(180 30.270869398155746 0)" >read_ok {:value 4}</text></g><g transform="translate(314.2857 1450.0) rotate(1.6706532501685518) " ><rect x="0" y="-2.5" height="5" width="682.005899093121" fill="#81BFFC" ><title >c11 → n0 {:type "read", :msg_id 1}</title></rect><use xlink:href="#ahead" x="686.005899093121" y="0" /><text text-anchor="middle" x="343.0029495465605" y="-4" transform="" filter="url(#glow)" style="fill: #fff" >read {}</text><text text-anchor="middle" x="343.0029495465605" y="-4" transform="" >read {}</text></g><g transform="translate(1000.0 1490.0) rotate(6.654424375154429) " ><rect x="0" y="-2.5" height="5" width="168.5913122987226" fill="#000" ><title >n0 → seq-kv {:key "key", :msg_id 4, :type "read"}</title></rect><use xlink:href="#ahead" x="172.5913122987226" y="0" /><text text-anchor="middle" x="86.2956561493613" y="-4" transform="" filter="url(#glow)" style="fill: #fff" >read {:key "key"}</text><text text-anchor="middle" x="86.2956561493613" y="-4" transform="" >read {:key "key"}</text></g><g transform="translate(1171.4286 1530.0) rotate(173.34557562484557) " ><rect x="0" y="-2.5" height="5" width="168.5913122987226" fill="#000" ><title >seq-kv → n0 {:type "read_ok", :value 4, :in_reply_to 4}</title></rect><use xlink:href="#ahead" x="172.5913122987226" y="0" /><text text-anchor="middle" x="86.2956561493613" y="-4" transform="rotate(180 86.2956561493613 0)" filter="url(#glow)" style="fill: #fff" >read_ok {:value 4}</text><text text-anchor="middle" x="86.2956561493613" y="-4" transform="rotate(180 86.2956561493613 0)" >read_ok {:value 4}</text></g><g transform="translate(371.42856 1570.0) rotate(1.6706533244785093) " ><rect x="0" y="-2.5" height="5" width="682.0058685885151" fill="#81BFFC" ><title >c12 → n1 {:delta 2, :type "add", :msg_id 1}</title></rect><use xlink:href="#ahead" x="686.0058685885151" y="0" /><text text-anchor="middle" x="343.00293429425756" y="-4" transform="" filter="url(#glow)" style="fill: #fff" >add {:delta 2}</text><text text-anchor="middle" x="343.00293429425756" y="-4" transform="" >add {:delta 2}</text></g><g transform="translate(1057.1428 1610.0) rotate(9.92624105315496) " ><rect x="0" y="-2.5" height="5" width="112.0225686998302" fill="#000" ><title >n1 → seq-kv {:key "key", :msg_id 5, :type "read"}</title></rect><use xlink:href="#ahead" x="116.0225686998302" y="0" /><text text-anchor="middle" x="58.0112843499151" y="-4" transform="" filter="url(#glow)" style="fill: #fff" >read {:key "key"}</text><text text-anchor="middle" x="58.0112843499151" y="-4" transform="" >read {:key "key"}</text></g><g transform="translate(1171.4286 1650.0) rotate(170.07375894684506) " ><rect x="0" y="-2.5" height="5" width="112.0225686998302" fill="#000" ><title >seq-kv → n1 {:type "read_ok", :value 4, :in_reply_to 5}</title></rect><use xlink:href="#ahead" x="116.0225686998302" y="0" /><text text-anchor="middle" x="58.0112843499151" y="-4" transform="rotate(180 58.0112843499151 0)" filter="url(#glow)" style="fill: #fff" >read_ok {:value 4}</text><text text-anchor="middle" x="58.0112843499151" y="-4" transform="rotate(180 58.0112843499151 0)" >read_ok {:value 4}</text></g><g transform="translate(428.57144 1690.0) rotate(1.6706531758586012) " ><rect x="0" y="-2.5" height="5" width="682.0059295977268" fill="#81BFFC" ><title >c13 → n2 {:delta 4, :type "add", :msg_id 1}</title></rect><use xlink:href="#ahead" x="686.0059295977268" y="0" /><text text-anchor="middle" x="343.0029647988634" y="-4" transform="" filter="url(#glow)" style="fill: #fff" >add {:delta 4}</text><text text-anchor="middle" x="343.0029647988634" y="-4" transform="" >add {:delta 4}</text></g><g transform="translate(1114.2858 1730.0) rotate(19.29005712315813) " ><rect x="0" y="-2.5" height="5" width="56.54173879631149" fill="#000" ><title >n2 → seq-kv {:key "key", :msg_id 5, :type "read"}</title></rect><use xlink:href="#ahead" x="60.54173879631149" y="0" /><text text-anchor="middle" x="30.270869398155746" y="-4" transform="" filter="url(#glow)" style="fill: #fff" >read {:key "key"}</text><text text-anchor="middle" x="30.270869398155746" y="-4" transform="" >read {:key "key"}</text></g><g transform="translate(1171.4286 1770.0) rotate(160.7099428768419) " ><rect x="0" y="-2.5" height="5" width="56.54173879631149" fill="#000" ><title >seq-kv → n2 {:type "read_ok", :value 4, :in_reply_to 5}</title></rect><use xlink:href="#ahead" x="60.54173879631149" y="0" /><text text-anchor="middle" x="30.270869398155746" y="-4" transform="rotate(180 30.270869398155746 0)" filter="url(#glow)" style="fill: #fff" >read_ok {:value 4}</text><text text-anchor="middle" x="30.270869398155746" y="-4" transform="rotate(180 30.270869398155746 0)" >read_ok {:value 4}</text></g><g transform="translate(485.7143 1810.0) rotate(2.227047005133379) " ><rect x="0" y="-2.5" height="5" width="510.67444753935115" fill="#81BFFC" ><title >c14 → n0 {:type "read", :msg_id 1}</title></rect><use xlink:href="#ahead" x="514.6744475393511" y="0" /><text text-anchor="middle" x="257.3372237696756" y="-4" transform="" filter="url(#glow)" style="fill: #fff" >read {}</text><text text-anchor="middle" x="257.3372237696756" y="-4" transform="" >read {}</text></g><g transform="translate(1000.0 1850.0) rotate(6.654424375154429) " ><rect x="0" y="-2.5" height="5" width="168.5913122987226" fill="#000" ><title >n0 → seq-kv {:key "key", :msg_id 5, :type "read"}</title></rect><use xlink:href="#ahead" x="172.5913122987226" y="0" /><text text-anchor="middle" x="86.2956561493613" y="-4" transform="" filter="url(#glow)" style="fill: #fff" >read {:key "key"}</text><text text-anchor="middle" x="86.2956561493613" y="-4" transform="" >read {:key "key"}</text></g><g transform="translate(1171.4286 1890.0) rotate(173.34557562484557) " ><rect x="0" y="-2.5" height="5" width="168.5913122987226" fill="#000" ><title >seq-kv → n0 {:type "read_ok", :value 4, :in_reply_to 5}</title></rect><use xlink:href="#ahead" x="172.5913122987226" y="0" /><text text-anchor="middle" x="86.2956561493613" y="-4" transform="rotate(180 86.2956561493613 0)" filter="url(#glow)" style="fill: #fff" >read_ok {:value 4}</text><text text-anchor="middle" x="86.2956561493613" y="-4" transform="rotate(180 86.2956561493613 0)" >read_ok {:value 4}</text></g><g transform="translate(542.8571 1930.0) rotate(2.227047005133379) " ><rect x="0" y="-2.5" height="5" width="510.67444753935115" fill="#81BFFC" ><title >c15 → n1 {:type "read", :msg_id 1}</title></rect><use xlink:href="#ahead" x="514.6744475393511" y="0" /><text text-anchor="middle" x="257.3372237696756" y="-4" transform="" filter="url(#glow)" style="fill: #fff" >read {}</text><text text-anchor="middle" x="257.3372237696756" y="-4" transform="" >read {}</text></g><g transform="translate(1057.1428 1970.0) rotate(9.92624105315496) " ><rect x="0" y="-2.5" height="5" width="112.0225686998302" fill="#000" ><title >n1 → seq-kv {:key "key", :msg_id 6, :type "read"}</title></rect><use xlink:href="#ahead" x="116.0225686998302" y="0" /><text text-anchor="middle" x="58.0112843499151" y="-4" transform="" filter="url(#glow)" style="fill: #fff" >read {:key "key"}</text><text text-anchor="middle" x="58.0112843499151" y="-4" transform="" >read {:key "key"}</text></g><g transform="translate(1171.4286 2010.0) rotate(170.07375894684506) " ><rect x="0" y="-2.5" height="5" width="112.0225686998302" fill="#000" ><title >seq-kv → n1 {:type "read_ok", :value 4, :in_reply_to 6}</title></rect><use xlink:href="#ahead" x="116.0225686998302" y="0" /><text text-anchor="middle" x="58.0112843499151" y="-4" transform="rotate(180 58.0112843499151 0)" filter="url(#glow)" style="fill: #fff" >read_ok {:value 4}</text><text text-anchor="middle" x="58.0112843499151" y="-4" transform="rotate(180 58.0112843499151 0)" >read_ok {:value 4}</text></g><g transform="translate(600.0 2050.0) rotate(2.227046741094778) " ><rect x="0" y="-2.5" height="5" width="510.6745085284066" fill="#81BFFC" ><title >c16 → n2 {:type "read", :msg_id 1}</title></rect><use xlink:href="#ahead" x="514.6745085284066" y="0" /><text text-anchor="middle" x="257.3372542642033" y="-4" transform="" filter="url(#glow)" style="fill: #fff" >read {}</text><text text-anchor="middle" x="257.3372542642033" y="-4" transform="" >read {}</text></g><g transform="translate(1114.2858 2090.0) rotate(19.29005712315813) " ><rect x="0" y="-2.5" height="5" width="56.54173879631149" fill="#000" ><title >n2 → seq-kv {:key "key", :msg_id 6, :type "read"}</title></rect><use xlink:href="#ahead" x="60.54173879631149" y="0" /><text text-anchor="middle" x="30.270869398155746" y="-4" transform="" filter="url(#glow)" style="fill: #fff" >read {:key "key"}</text><text text-anchor="middle" x="30.270869398155746" y="-4" transform="" >read {:key "key"}</text></g><g transform="translate(1171.4286 2130.0) rotate(160.7099428768419) " ><rect x="0" y="-2.5" height="5" width="56.54173879631149" fill="#000" ><title >seq-kv → n2 {:type "read_ok", :value 4, :in_reply_to 6}</title></rect><use xlink:href="#ahead" x="60.54173879631149" y="0" /><text text-anchor="middle" x="30.270869398155746" y="-4" transform="rotate(180 30.270869398155746 0)" filter="url(#glow)" style="fill: #fff" >read_ok {:value 4}</text><text text-anchor="middle" x="30.270869398155746" y="-4" transform="rotate(180 30.270869398155746 0)" >read_ok {:value 4}</text></g><g transform="translate(657.1429 2170.0) rotate(3.3384707978933563) " ><rect x="0" y="-2.5" height="5" width="339.43995468102094" fill="#81BFFC" ><title >c17 → n0 {:type "read", :msg_id 1}</title></rect><use xlink:href="#ahead" x="343.43995468102094" y="0" /><text text-anchor="middle" x="171.71997734051047" y="-4" transform="" filter="url(#glow)" style="fill: #fff" >read {}</text><text text-anchor="middle" x="171.71997734051047" y="-4" transform="" >read {}</text></g><g transform="translate(1000.0 2210.0) rotate(6.654424375154429) " ><rect x="0" y="-2.5" height="5" width="168.5913122987226" fill="#000" ><title >n0 → seq-kv {:key "key", :msg_id 6, :type "read"}</title></rect><use xlink:href="#ahead" x="172.5913122987226" y="0" /><text text-anchor="middle" x="86.2956561493613" y="-4" transform="" filter="url(#glow)" style="fill: #fff" >read {:key "key"}</text><text text-anchor="middle" x="86.2956561493613" y="-4" transform="" >read {:key "key"}</text></g><g transform="translate(1171.4286 2250.0) rotate(173.34557562484557) " ><rect x="0" y="-2.5" height="5" width="168.5913122987226" fill="#000" ><title >seq-kv → n0 {:type "read_ok", :value 4, :in_reply_to 6}</title></rect><use xlink:href="#ahead" x="172.5913122987226" y="0" /><text text-anchor="middle" x="86.2956561493613" y="-4" transform="rotate(180 86.2956561493613 0)" filter="url(#glow)" style="fill: #fff" >read_ok {:value 4}</text><text text-anchor="middle" x="86.2956561493613" y="-4" transform="rotate(180 86.2956561493613 0)" >read_ok {:value 4}</text></g><g transform="translate(714.2857 2290.0) rotate(3.3384707978933563) " ><rect x="0" y="-2.5" height="5" width="339.43995468102094" fill="#81BFFC" ><title >c18 → n1 {:delta 3, :type "add", :msg_id 1}</title></rect><use xlink:href="#ahead" x="343.43995468102094" y="0" /><text text-anchor="middle" x="171.71997734051047" y="-4" transform="" filter="url(#glow)" style="fill: #fff" >add {:delta 3}</text><text text-anchor="middle" x="171.71997734051047" y="-4" transform="" >add {:delta 3}</text></g><g transform="translate(1057.1428 2330.0) rotate(9.92624105315496) " ><rect x="0" y="-2.5" height="5" width="112.0225686998302" fill="#000" ><title >n1 → seq-kv {:key "key", :msg_id 7, :type "read"}</title></rect><use xlink:href="#ahead" x="116.0225686998302" y="0" /><text text-anchor="middle" x="58.0112843499151" y="-4" transform="" filter="url(#glow)" style="fill: #fff" >read {:key "key"}</text><text text-anchor="middle" x="58.0112843499151" y="-4" transform="" >read {:key "key"}</text></g><g transform="translate(1171.4286 2370.0) rotate(170.07375894684506) " ><rect x="0" y="-2.5" height="5" width="112.0225686998302" fill="#000" ><title >seq-kv → n1 {:type "read_ok", :value 4, :in_reply_to 7}</title></rect><use xlink:href="#ahead" x="116.0225686998302" y="0" /><text text-anchor="middle" x="58.0112843499151" y="-4" transform="rotate(180 58.0112843499151 0)" filter="url(#glow)" style="fill: #fff" >read_ok {:value 4}</text><text text-anchor="middle" x="58.0112843499151" y="-4" transform="rotate(180 58.0112843499151 0)" >read_ok {:value 4}</text></g><g transform="translate(771.4286 2410.0) rotate(3.338470204925741) " ><rect x="0" y="-2.5" height="5" width="339.4400156125969" fill="#81BFFC" ><title >c19 → n2 {:type "read", :msg_id 1}</title></rect><use xlink:href="#ahead" x="343.4400156125969" y="0" /><text text-anchor="middle" x="171.72000780629844" y="-4" transform="" filter="url(#glow)" style="fill: #fff" >read {}</text><text text-anchor="middle" x="171.72000780629844" y="-4" transform="" >read {}</text></g><g transform="translate(1114.2858 2450.0) rotate(19.29005712315813) " ><rect x="0" y="-2.5" height="5" width="56.54173879631149" fill="#000" ><title >n2 → seq-kv {:key "key", :msg_id 7, :type "read"}</title></rect><use xlink:href="#ahead" x="60.54173879631149" y="0" /><text text-anchor="middle" x="30.270869398155746" y="-4" transform="" filter="url(#glow)" style="fill: #fff" >read {:key "key"}</text><text text-anchor="middle" x="30.270869398155746" y="-4" transform="" >read {:key "key"}</text></g><g transform="translate(1171.4286 2490.0) rotate(160.7099428768419) " ><rect x="0" y="-2.5" height="5" width="56.54173879631149" fill="#000" ><title >seq-kv → n2 {:type "read_ok", :value 4, :in_reply_to 7}</title></rect><use xlink:href="#ahead" x="60.54173879631149" y="0" /><text text-anchor="middle" x="30.270869398155746" y="-4" transform="rotate(180 30.270869398155746 0)" filter="url(#glow)" style="fill: #fff" >read_ok {:value 4}</text><text text-anchor="middle" x="30.270869398155746" y="-4" transform="rotate(180 30.270869398155746 0)" >read_ok {:value 4}</text></g><g transform="translate(885.7143 2530.0) rotate(27.699474607128938) " ><rect x="0" y="-2.5" height="5" width="125.07835797224607" fill="#81BFFC" ><title >c21 → n0 {:type "read", :msg_id 1}</title></rect><use xlink:href="#ahead" x="129.07835797224607" y="0" /><text text-anchor="middle" x="64.53917898612303" y="-4" transform="" filter="url(#glow)" style="fill: #fff" >read {}</text><text text-anchor="middle" x="64.53917898612303" y="-4" transform="" >read {}</text></g><g transform="translate(942.8571 2550.0) rotate(27.699474607128938) " ><rect x="0" y="-2.5" height="5" width="125.07835797224607" fill="#81BFFC" ><title >c22 → n1 {:type "read", :msg_id 1}</title></rect><use xlink:href="#ahead" x="129.07835797224607" y="0" /><text text-anchor="middle" x="64.53917898612303" y="-4" transform="" filter="url(#glow)" style="fill: #fff" >read {}</text><text text-anchor="middle" x="64.53917898612303" y="-4" transform="" >read {}</text></g><g transform="translate(828.5714 2570.0) rotate(11.859776307494219) " ><rect x="0" y="-2.5" height="5" width="287.9463870660557" fill="#81BFFC" ><title >c20 → n2 {:type "read", :msg_id 1}</title></rect><use xlink:href="#ahead" x="291.9463870660557" y="0" /><text text-anchor="middle" x="145.97319353302785" y="-4" transform="" filter="url(#glow)" style="fill: #fff" >read {}</text><text text-anchor="middle" x="145.97319353302785" y="-4" transform="" >read {}</text></g><g transform="translate(1114.2858 2650.0) rotate(46.39719849179466) " ><rect x="0" y="-2.5" height="5" width="78.85711880388315" fill="#000" ><title >n2 → seq-kv {:key "key", :msg_id 8, :type "read"}</title></rect><use xlink:href="#ahead" x="82.85711880388315" y="0" /><text text-anchor="middle" x="41.42855940194158" y="-4" transform="" filter="url(#glow)" style="fill: #fff" >read {:key "key"}</text><text text-anchor="middle" x="41.42855940194158" y="-4" transform="" >read {:key "key"}</text></g><g transform="translate(1000.0 2690.0) rotate(19.290044401861653) " ><rect x="0" y="-2.5" height="5" width="177.6253316060158" fill="#000" ><title >n0 → seq-kv {:key "key", :msg_id 7, :type "read"}</title></rect><use xlink:href="#ahead" x="181.6253316060158" y="0" /><text text-anchor="middle" x="90.8126658030079" y="-4" transform="" filter="url(#glow)" style="fill: #fff" >read {:key "key"}</text><text text-anchor="middle" x="90.8126658030079" y="-4" transform="" >read {:key "key"}</text></g><g transform="translate(1171.4286 2730.0) rotate(145.00796337230847) " ><rect x="0" y="-2.5" height="5" width="65.75171780308216" fill="#000" ><title >seq-kv → n2 {:type "read_ok", :value 4, :in_reply_to 8}</title></rect><use xlink:href="#ahead" x="69.75171780308216" y="0" /><text text-anchor="middle" x="34.87585890154108" y="-4" transform="rotate(180 34.87585890154108 0)" filter="url(#glow)" style="fill: #fff" >read_ok {:value 4}</text><text text-anchor="middle" x="34.87585890154108" y="-4" transform="rotate(180 34.87585890154108 0)" >read_ok {:value 4}</text></g><g transform="translate(1057.1428 2670.0) rotate(50.774313054193804) " ><rect x="0" y="-2.5" height="5" width="176.7241999503852" fill="#000" ><title >n1 → seq-kv {:key "key", :msg_id 8, :type "read"}</title></rect><use xlink:href="#ahead" x="180.7241999503852" y="0" /><text text-anchor="middle" x="90.3620999751926" y="-4" transform="" filter="url(#glow)" style="fill: #fff" >read {:key "key"}</text><text text-anchor="middle" x="90.3620999751926" y="-4" transform="" >read {:key "key"}</text></g><g transform="translate(1171.4286 2790.0) rotate(166.86597898335057) " ><rect x="0" y="-2.5" height="5" width="172.03340899100718" fill="#000" ><title >seq-kv → n0 {:type "read_ok", :value 4, :in_reply_to 7}</title></rect><use xlink:href="#ahead" x="176.03340899100718" y="0" /><text text-anchor="middle" x="88.01670449550359" y="-4" transform="rotate(180 88.01670449550359 0)" filter="url(#glow)" style="fill: #fff" >read_ok {:value 4}</text><text text-anchor="middle" x="88.01670449550359" y="-4" transform="rotate(180 88.01670449550359 0)" >read_ok {:value 4}</text></g><g transform="translate(1171.4286 2850.0) rotate(170.07375894684506) " ><rect x="0" y="-2.5" height="5" width="112.0225686998302" fill="#000" ><title >seq-kv → n1 {:type "read_ok", :value 4, :in_reply_to 8}</title></rect><use xlink:href="#ahead" x="116.0225686998302" y="0" /><text text-anchor="middle" x="58.0112843499151" y="-4" transform="rotate(180 58.0112843499151 0)" filter="url(#glow)" style="fill: #fff" >read_ok {:value 4}</text><text text-anchor="middle" x="58.0112843499151" y="-4" transform="rotate(180 58.0112843499151 0)" >read_ok {:value 4}</text></g></g></svg>