<?xml version="1.0" encoding="UTF-8"?><svg xmlns:svg="http://www.w3.org/2000/svg" xmlns="http://www.w3.org/2000/svg" xmlns:xlink="http://www.w3.org/1999/xlink" version="2.0" width="1200" height="2660" ><style >
svg {
  font-family: Helvetica, Arial, sans-serif;
  font-size: 11px;
}
rect {
  stroke-linecap: butt;
  stroke-width: 3;
  stroke: #fff;
/*  stroke-opacity: 1; */
}
rect:hover {
  stroke: #fff;
/*  stroke-opacity: 1; /*
}
polygon { fill: #000; }</style><defs ><polygon id="ahead" points="0 0, -12 4, -12 -4" /><filter id="glow" x="0" y="0" ><feGaussianBlur in="SourceAlpha" stdDeviation="2" result="blurred" /><feFlood flood-color="#fff" /><feComposite operator="in" in2="blurred" /><feComponentTransfer ><feFuncA type="linear" slope="10" intercept="0" /></feComponentTransfer><feMerge ><feMergeNode /><feMergeNode in="SourceGraphic" /></feMerge></filter></defs><g ><text x="30.0" y="20.0" text-anchor="middle" alignment-baseline="middle" fill="#000" >c6</text><text x="30.0" y="1020.0" text-anchor="middle" alignment-baseline="middle" fill="#aaa" >c6</text><text x="30.0" y="2020.0" text-anchor="middle" alignment-baseline="middle" fill="#aaa" >c6</text><text x="90.0" y="20.0" text-anchor="middle" alignment-baseline="middle" fill="#000" >c7</text><text x="90.0" y="1020.0" text-anchor="middle" alignment-baseline="middle" fill="#aaa" >c7</text><text x="90.0" y="2020.0" text-anchor="middle" alignment-baseline="middle" fill="#aaa" >c7</text><text x="150.0" y="20.0" text-anchor="middle" alignment-baseline="middle" fill="#000" >c8</text><text x="150.0" y="1020.0" text-anchor="middle" alignment-baseline="middle" fill="#aaa" >c8</text><text x="150.0" y="2020.0" text-anchor="middle" alignment-baseline="middle" fill="#aaa" >c8</text><text x="210.0" y="20.0" text-anchor="middle" alignment-baseline="middle" fill="#000" >c9</text><text x="210.0" y="1020.0" text-anchor="middle" alignment-baseline="middle" fill="#aaa" >c9</text><text x="210.0" y="2020.0" text-anchor="middle" alignment-baseline="middle" fill="#aaa" >c9</text><text x="270.0" y="20.0" text-anchor="middle" alignment-baseline="middle" fill="#000" >c10</text><text x="270.0" y="1020.0" text-anchor="middle" alignment-baseline="middle" fill="#aaa" >c10</text><text x="270.0" y="2020.0" text-anchor="middle" alignment-baseline="middle" fill="#aaa" >c10</text><text x="330.0" y="20.0" text-anchor="middle" alignment-baseline="middle" fill="#000" >c11</text><text x="330.0" y="1020.0" text-anchor="middle" alignment-baseline="middle" fill="#aaa" >c11</text><text x="330.0" y="2020.0" text-anchor="middle" alignment-baseline="middle" fill="#aaa" >c11</text><text x="390.0" y="20.0" text-anchor="middle" alignment-baseline="middle" fill="#000" >c12</text><text x="390.0" y="1020.0" text-anchor="middle" alignment-baseline="middle" fill="#aaa" >c12</text><text x="390.0" y="2020.0" text-anchor="middle" alignment-baseline="middle" fill="#aaa" >c12</text><text x="450.0" y="20.0" text-anchor="middle" alignment-baseline="middle" fill="#000" >c13</text><text x="450.0" y="1020.0" text-anchor="middle" alignment-baseline="middle" fill="#aaa" >c13</text><text x="450.0" y="2020.0" text-anchor="middle" alignment-baseline="middle" fill="#aaa" >c13</text><text x="510.0" y="20.0" text-anchor="middle" alignment-baseline="middle" fill="#000" >c14</text><text x="510.0" y="1020.0" text-anchor="middle" alignment-baseline="middle" fill="#aaa" >c14</text><text x="510.0" y="2020.0" text-anchor="middle" alignment-baseline="middle" fill="#aaa" >c14</text><text x="570.0" y="20.0" text-anchor="middle" alignment-baseline="middle" fill="#000" >c15</text><text x="570.0" y="1020.0" text-anchor="middle" alignment-baseline="middle" fill="#aaa" >c15</text><text x="570.0" y="2020.0" text-anchor="middle" alignment-baseline="middle" fill="#aaa" >c15</text><text x="630.0" y="20.0" text-anchor="middle" alignment-baseline="middle" fill="#000" >c16</text><text x="630.0" y="1020.0" text-anchor="middle" alignment-baseline="middle" fill="#aaa" >c16</text><text x="630.0" y="2020.0" text-anchor="middle" alignment-baseline="middle" fill="#aaa" >c16</text><text x="690.0" y="20.0" text-anchor="middle" alignment-baseline="middle" fill="#000" >c17</text><text x="690.0" y="1020.0" text-anchor="middle" alignment-baseline="middle" fill="#aaa" >c17</text><text x="690.0" y="2020.0" text-anchor="middle" alignment-baseline="middle" fill="#aaa" >c17</text><text x="750.0" y="20.0" text-anchor="middle" alignment-baseline="middle" fill="#000" >c18</text><text x="750.0" y="1020.0" text-anchor="middle" alignment-baseline="middle" fill="#aaa" >c18</text><text x="750.0" y="2020.0" text-anchor="middle" alignment-baseline="middle" fill="#aaa" >c18</text><text x="810.0" y="20.0" text-anchor="middle" alignment-baseline="middle" fill="#000" >c19</text><text x="810.0" y="1020.0" text-anchor="middle" alignment-baseline="middle" fill="#aaa" >c19</text><text x="810.0" y="2020.0" text-anchor="middle" alignment-baseline="middle" fill="#aaa" >c19</text><text x="870.0" y="20.0" text-anchor="middle" alignment-baseline="middle" fill="#000" >c20</text><text x="870.0" y="1020.0" text-anchor="middle" alignment-baseline="middle" fill="#aaa" >c20</text><text x="870.0" y="2020.0" text-anchor="middle" alignment-baseline="middle" fill="#aaa" >c20</text><text x="930.0" y="20.0" text-anchor="middle" alignment-baseline="middle" fill="#000" >c21</text><text x="930.0" y="1020.0" text-anchor="middle" alignment-baseline="middle" fill="#aaa" >c21</text><text x="930.0" y="2020.0" text-anchor="middle" alignment-baseline="middle" fill="#aaa" >c21</text><text x="990.0" y="20.0" text-anchor="middle" alignment-baseline="middle" fill="#000" >n0</text><text x="990.0" y="1020.0" text-anchor="middle" alignment-baseline="middle" fill="#aaa" >n0</text><text x="990.0" y="2020.0" text-anchor="middle" alignment-baseline="middle" fill="#aaa" >n0</text><text x="1050.0" y="20.0" text-anchor="middle" alignment-baseline="middle" fill="#000" >n1</text><text x="1050.0" y="1020.0" text-anchor="middle" alignment-baseline="middle" fill="#aaa" >n1</text><text x="1050.0" y="2020.0" text-anchor="middle" alignment-baseline="middle" fill="#aaa" >n1</text><text x="1110.0" y="20.0" text-anchor="middle" alignment-baseline="middle" fill="#000" >n2</text><text x="1110.0" y="1020.0" text-anchor="middle" alignment-baseline="middle" fill="#aaa" >n2</text><text x="1110.0" y="2020.0" text-anchor="middle" alignment-baseline="middle" fill="#aaa" >n2</text><text x="1170.0" y="20.0" text-anchor="middle" alignment-baseline="middle" fill="#000" >seq-kv</text><text x="1170.0" y="1020.0" text-anchor="middle" alignment-baseline="middle" fill="#aaa" >seq-kv</text><text x="1170.0" y="2020.0" text-anchor="middle" alignment-baseline="middle" fill="#aaa" >seq-kv</text></g><g ><line stroke="#ccc" x1="30.0" y1="30.0" x2="30.0" y2="2570.0" /><line stroke="#ccc" x1="90.0" y1="30.0" x2="90.0" y2="2570.0" /><line stroke="#ccc" x1="150.0" y1="30.0" x2="150.0" y2="2570.0" /><line stroke="#ccc" x1="210.0" y1="30.0" x2="210.0" y2="2570.0" /><line stroke="#ccc" x1="270.0" y1="30.0" x2="270.0" y2="2570.0" /><line stroke="#ccc" x1="330.0" y1="30.0" x2="330.0" y2="2570.0" /><line stroke="#ccc" x1="390.0" y1="30.0" x2="390.0" y2="2570.0" /><line stroke="#ccc" x1="450.0" y1="30.0" x2="450.0" y2="2570.0" /><line stroke="#ccc" x1="510.0" y1="30.0" x2="510.0" y2="2570.0" /><line stroke="#ccc" x1="570.0" y1="30.0" x2="570.0" y2="2570.0" /><line stroke="#ccc" x1="630.0" y1="30.0" x2="630.0" y2="2570.0" /><line stroke="#ccc" x1="690.0" y1="30.0" x2="690.0" y2="2570.0" /><line stroke="#ccc" x1="750.0" y1="30.0" x2="750.0" y2="2570.0" /><line stroke="#ccc" x1="810.0" y1="30.0" x2="810.0" y2="2570.0" /><line stroke="#ccc" x1="870.0" y1="30.0" x2="870.0" y2="2570.0" /><line stroke="#ccc" x1="930.0" y1="30.0" x2="930.0" y2="2570.0" /><line stroke="#ccc" x1="990.0" y1="30.0" x2="990.0" y2="2570.0" /><line stroke="#ccc" x1="1050.0" y1="30.0" x2="1050.0" y2="2570.0" /><line stroke="#ccc" x1="1110.0" y1="30.0" x2="1110.0" y2="2570.0" /><line stroke="#ccc" x1="1170.0" y1="30.0" x2="1170.0" y2="2570.0" /></g><g ><g transform="translate(30.0 50.0) rotate(3.5763343749973515) " ><rect x="0" y="-2.5" height="5" width="957.8731725128838" fill="#81BFFC" ><title >c6 → n0 {:delta 3, :type "add", :msg_id 1}</title></rect><use xlink:href="#ahead" x="961.8731725128838" y="0" /><text text-anchor="middle" x="480.9365862564419" y="-4" transform="" filter="url(#glow)" style="fill: #fff" >add {:delta 3}</text><text text-anchor="middle" x="480.9365862564419" y="-4" transform="" >add {:delta 3}</text></g><g transform="translate(90.0 70.0) rotate(3.366460663429801) " ><rect x="0" y="-2.5" height="5" width="1017.7631819555841" fill="#81BFFC" ><title >c7 → n2 {:delta 4, :type "add", :msg_id 1}</title></rect><use xlink:href="#ahead" x="1021.7631819555841" y="0" /><text text-anchor="middle" x="510.88159097779203" y="-4" transform="" filter="url(#glow)" style="fill: #fff" >add {:delta 4}</text><text text-anchor="middle" x="510.88159097779203" y="-4" transform="" >add {:delta 4}</text></g><g transform="translate(150.0 90.0) rotate(3.8140748342903543) " ><rect x="0" y="-2.5" height="5" width="897.9977827023745" fill="#81BFFC" ><title >c8 → n1 {:delta 0, :type "add", :msg_id 1}</title></rect><use xlink:href="#ahead" x="901.9977827023745" y="0" /><text text-anchor="middle" x="450.99889135118724" y="-4" transform="" filter="url(#glow)" style="fill: #fff" >add {:delta 0}</text><text text-anchor="middle" x="450.99889135118724" y="-4" transform="" >add {:delta 0}</text></g><g transform="translate(1050.0 190.0) rotate(18.43494882292201) " ><rect x="0" y="-2.5" height="5" width="122.49110640673517" fill="#000" ><title >n1 → seq-kv {:key "key", :msg_id 1, :type "read"}</title></rect><use xlink:href="#ahead" x="126.49110640673517" y="0" /><text text-anchor="middle" x="63.245553203367585" y="-4" transform="" filter="url(#glow)" style="fill: #fff" >read {:key "key"}</text><text text-anchor="middle" x="63.245553203367585" y="-4" transform="" >read {:key "key"}</text></g><g transform="translate(1110.0 170.0) rotate(59.03624346792648) " ><rect x="0" y="-2.5" height="5" width="112.61903789690601" fill="#000" ><title >n2 → seq-kv {:key "key", :msg_id 1, :type "read"}</title></rect><use xlink:href="#ahead" x="116.61903789690601" y="0" /><text text-anchor="middle" x="58.309518948453004" y="-4" transform="" filter="url(#glow)" style="fill: #fff" >read {:key "key"}</text><text text-anchor="middle" x="58.309518948453004" y="-4" transform="" >read {:key "key"}</text></g><g transform="translate(1170.0 250.0) rotate(161.56505117707798) " ><rect x="0" y="-2.5" height="5" width="122.49110640673517" fill="#FF1E90" ><title >seq-kv → n1 {:type "error", :code 20, :text "key does not exist", :in_reply_to 1}</title></rect><use xlink:href="#ahead" x="126.49110640673517" y="0" /><text text-anchor="middle" x="63.245553203367585" y="-4" transform="rotate(180 63.245553203367585 0)" filter="url(#glow)" style="fill: #fff" >error key does not exist</text><text text-anchor="middle" x="63.245553203367585" y="-4" transform="rotate(180 63.245553203367585 0)" >error key does not exist</text></g><g transform="translate(990.0 210.0) rotate(33.690067525979785) " ><rect x="0" y="-2.5" height="5" width="212.33307652783935" fill="#000" ><title >n0 → seq-kv {:key "key", :msg_id 1, :type "read"}</title></rect><use xlink:href="#ahead" x="216.33307652783935" y="0" /><text text-anchor="middle" x="108.16653826391968" y="-4" transform="" filter="url(#glow)" style="fill: #fff" >read {:key "key"}</text><text text-anchor="middle" x="108.16653826391968" y="-4" transform="" >read {:key "key"}</text></g><g transform="translate(1170.0 310.0) rotate(146.30993247402023) " ><rect x="0" y="-2.5" height="5" width="68.11102550927978" fill="#FF1E90" ><title >seq-kv → n2 {:type "error", :code 20, :text "key does not exist", :in_reply_to 1}</title></rect><use xlink:href="#ahead" x="72.11102550927978" y="0" /><text text-anchor="middle" x="36.05551275463989" y="-4" transform="rotate(180 36.05551275463989 0)" filter="url(#glow)" style="fill: #fff" >error key does not exist</text><text text-anchor="middle" x="36.05551275463989" y="-4" transform="rotate(180 36.05551275463989 0)" >error key does not exist</text></g><g transform="translate(1170.0 370.0) rotate(173.6598082540901) " ><rect x="0" y="-2.5" height="5" width="177.10770276274835" fill="#FF1E90" ><title >seq-kv → n0 {:type "error", :code 20, :text "key does not exist", :in_reply_to 1}</title></rect><use xlink:href="#ahead" x="181.10770276274835" y="0" /><text text-anchor="middle" x="90.55385138137417" y="-4" transform="rotate(180 90.55385138137417 0)" filter="url(#glow)" style="fill: #fff" >error key does not exist</text><text text-anchor="middle" x="90.55385138137417" y="-4" transform="rotate(180 90.55385138137417 0)" >error key does not exist</text></g><g transform="translate(1050.0 410.0) rotate(26.565051177077986) " ><rect x="0" y="-2.5" height="5" width="130.16407864998737" fill="#000" ><title >n1 → seq-kv {:create_if_not_exists true, :from 0, :key "key", :msg_id 2, :to 0, :type "cas"}</title></rect><use xlink:href="#ahead" x="134.16407864998737" y="0" /><text text-anchor="middle" x="67.08203932499369" y="-4" transform="" filter="url(#glow)" style="fill: #fff" >cas {:create_if_not_exists true, :from 0, :key …</text><text text-anchor="middle" x="67.08203932499369" y="-4" transform="" >cas {:create_if_not_exists true, :from 0, :key …</text></g><g transform="translate(990.0 430.0) rotate(23.962488974578182) " ><rect x="0" y="-2.5" height="5" width="192.9771560359221" fill="#000" ><title >n0 → seq-kv {:create_if_not_exists true, :from 0, :key "key", :msg_id 2, :to 3, :type "cas"}</title></rect><use xlink:href="#ahead" x="196.9771560359221" y="0" /><text text-anchor="middle" x="98.48857801796105" y="-4" transform="" filter="url(#glow)" style="fill: #fff" >cas {:create_if_not_exists true, :from 0, :key …</text><text text-anchor="middle" x="98.48857801796105" y="-4" transform="" >cas {:create_if_not_exists true, :from 0, :key …</text></g><g transform="translate(1170.0 490.0) rotate(161.56505117707798) " ><rect x="0" y="-2.5" height="5" width="122.49110640673517" fill="#000" ><title >seq-kv → n1 {:type "cas_ok", :in_reply_to 2}</title></rect><use xlink:href="#ahead" x="126.49110640673517" y="0" /><text text-anchor="middle" x="63.245553203367585" y="-4" transform="rotate(180 63.245553203367585 0)" filter="url(#glow)" style="fill: #fff" >cas_ok {}</text><text text-anchor="middle" x="63.245553203367585" y="-4" transform="rotate(180 63.245553203367585 0)" >cas_ok {}</text></g><g transform="translate(1110.0 450.0) rotate(63.43494882292201) " ><rect x="0" y="-2.5" height="5" width="130.16407864998737" fill="#000" ><title >n2 → seq-kv {:create_if_not_exists true, :from 0, :key "key", :msg_id 2, :to 4, :type "cas"}</title></rect><use xlink:href="#ahead" x="134.16407864998737" y="0" /><text text-anchor="middle" x="67.08203932499369" y="-4" transform="" filter="url(#glow)" style="fill: #fff" >cas {:create_if_not_exists true, :from 0, :key …</text><text text-anchor="middle" x="67.08203932499369" y="-4" transform="" >cas {:create_if_not_exists true, :from 0, :key …</text></g><g transform="translate(1170.0 550.0) rotate(167.4711922908485) " ><rect x="0" y="-2.5" height="5" width="180.39088914585776" fill="#000" ><title >seq-kv → n0 {:type "cas_ok", :in_reply_to 2}</title></rect><use xlink:href="#ahead" x="184.39088914585776" y="0" /><text text-anchor="middle" x="92.19544457292888" y="-4" transform="rotate(180 92.19544457292888 0)" filter="url(#glow)" style="fill: #fff" >cas_ok {}</text><text text-anchor="middle" x="92.19544457292888" y="-4" transform="rotate(180 92.19544457292888 0)" >cas_ok {}</text></g><g transform="translate(1170.0 610.0) rotate(161.56505117707798) " ><rect x="0" y="-2.5" height="5" width="59.245553203367585" fill="#FF1E90" ><title >seq-kv → n2 {:type "error", :code 22, :text "current value 3 is not 0", :in_reply_to 2}</title></rect><use xlink:href="#ahead" x="63.245553203367585" y="0" /><text text-anchor="middle" x="31.622776601683793" y="-4" transform="rotate(180 31.622776601683793 0)" filter="url(#glow)" style="fill: #fff" >error current value 3 is not 0</text><text text-anchor="middle" x="31.622776601683793" y="-4" transform="rotate(180 31.622776601683793 0)" >error current value 3 is not 0</text></g><g transform="translate(1050.0 650.0) rotate(177.4551956201869) " ><rect x="0" y="-2.5" height="5" width="896.8884503644166" fill="#81BFFC" ><title >n1 → c8 {:in_reply_to 1, :type "add_ok"}</title></rect><use xlink:href="#ahead" x="900.8884503644166" y="0" /><text text-anchor="middle" x="450.4442251822083" y="-4" transform="rotate(180 450.4442251822083 0)" filter="url(#glow)" style="fill: #fff" >add_ok {}</text><text text-anchor="middle" x="450.4442251822083" y="-4" transform="rotate(180 450.4442251822083 0)" >add_ok {}</text></g><g transform="translate(990.0 670.0) rotate(177.6140559696112) " ><rect x="0" y="-2.5" height="5" width="956.8329719571451" fill="#81BFFC" ><title >n0 → c6 {:in_reply_to 1, :type "add_ok"}</title></rect><use xlink:href="#ahead" x="960.8329719571451" y="0" /><text text-anchor="middle" x="480.41648597857255" y="-4" transform="rotate(180 480.41648597857255 0)" filter="url(#glow)" style="fill: #fff" >add_ok {}</text><text text-anchor="middle" x="480.41648597857255" y="-4" transform="rotate(180 480.41648597857255 0)" >add_ok {}</text></g><g transform="translate(1110.0 730.0) rotate(178.87669728592456) " ><rect x="0" y="-2.5" height="5" width="1016.1960595885479" fill="#FF1E90" ><title >n2 → c7 {:code 22, :in_reply_to 1, :text "current value 3 is not 0", :type "error"}</title></rect><use xlink:href="#ahead" x="1020.1960595885479" y="0" /><text text-anchor="middle" x="510.09802979427394" y="-4" transform="rotate(180 510.09802979427394 0)" filter="url(#glow)" style="fill: #fff" >error current value 3 is not 0</text><text text-anchor="middle" x="510.09802979427394" y="-4" transform="rotate(180 510.09802979427394 0)" >error current value 3 is not 0</text></g><g transform="translate(30.0 770.0) rotate(1.193489423982035) " ><rect x="0" y="-2.5" height="5" width="956.2083107326243" fill="#81BFFC" ><title >c6 → n0 {:delta 3, :type "add", :msg_id 2}</title></rect><use xlink:href="#ahead" x="960.2083107326243" y="0" /><text text-anchor="middle" x="480.10415536631217" y="-4" transform="" filter="url(#glow)" style="fill: #fff" >add {:delta 3}</text><text text-anchor="middle" x="480.10415536631217" y="-4" transform="" >add {:delta 3}</text></g><g transform="translate(990.0 810.0) rotate(6.340191745909909) " ><rect x="0" y="-2.5" height="5" width="177.10770276274835" fill="#000" ><title >n0 → seq-kv {:key "key", :msg_id 3, :type "read"}</title></rect><use xlink:href="#ahead" x="181.10770276274835" y="0" /><text text-anchor="middle" x="90.55385138137417" y="-4" transform="" filter="url(#glow)" style="fill: #fff" >read {:key "key"}</text><text text-anchor="middle" x="90.55385138137417" y="-4" transform="" >read {:key "key"}</text></g><g transform="translate(1170.0 850.0) rotate(173.6598082540901) " ><rect x="0" y="-2.5" height="5" width="177.10770276274835" fill="#000" ><title >seq-kv → n0 {:type "read_ok", :value 3, :in_reply_to 3}</title></rect><use xlink:href="#ahead" x="181.10770276274835" y="0" /><text text-anchor="middle" x="90.55385138137417" y="-4" transform="rotate(180 90.55385138137417 0)" filter="url(#glow)" style="fill: #fff" >read_ok {:value 3}</text><text text-anchor="middle" x="90.55385138137417" y="-4" transform="rotate(180 90.55385138137417 0)" >read_ok {:value 3}</text></g><g transform="translate(150.0 890.0) rotate(1.2730300200567113) " ><rect x="0" y="-2.5" height="5" width="896.222194794152" fill="#81BFFC" ><title >c8 → n1 {:delta 3, :type "add", :msg_id 2}</title></rect><use xlink:href="#ahead" x="900.222194794152" y="0" /><text text-anchor="middle" x="450.111097397076" y="-4" transform="" filter="url(#glow)" style="fill: #fff" >add {:delta 3}</text><text text-anchor="middle" x="450.111097397076" y="-4" transform="" >add {:delta 3}</text></g><g transform="translate(1050.0 930.0) rotate(9.462322208025618) " ><rect x="0" y="-2.5" height="5" width="117.6552506059644" fill="#000" ><title >n1 → seq-kv {:key "key", :msg_id 3, :type "read"}</title></rect><use xlink:href="#ahead" x="121.6552506059644" y="0" /><text text-anchor="middle" x="60.8276253029822" y="-4" transform="" filter="url(#glow)" style="fill: #fff" >read {:key "key"}</text><text text-anchor="middle" x="60.8276253029822" y="-4" transform="" >read {:key "key"}</text></g><g transform="translate(1170.0 970.0) rotate(170.53767779197437) " ><rect x="0" y="-2.5" height="5" width="117.6552506059644" fill="#000" ><title >seq-kv → n1 {:type "read_ok", :value 3, :in_reply_to 3}</title></rect><use xlink:href="#ahead" x="121.6552506059644" y="0" /><text text-anchor="middle" x="60.8276253029822" y="-4" transform="rotate(180 60.8276253029822 0)" filter="url(#glow)" style="fill: #fff" >read_ok {:value 3}</text><text text-anchor="middle" x="60.8276253029822" y="-4" transform="rotate(180 60.8276253029822 0)" >read_ok {:value 3}</text></g><g transform="translate(210.0 1010.0) rotate(1.2730300200567113) " ><rect x="0" y="-2.5" height="5" width="896.222194794152" fill="#81BFFC" ><title >c9 → n2 {:type "read", :msg_id 1}</title></rect><use xlink:href="#ahead" x="900.222194794152" y="0" /><text text-anchor="middle" x="450.111097397076" y="-4" transform="" filter="url(#glow)" style="fill: #fff" >read {}</text><text text-anchor="middle" x="450.111097397076" y="-4" transform="" >read {}</text></g><g transform="translate(1110.0 1050.0) rotate(18.43494882292201) " ><rect x="0" y="-2.5" height="5" width="59.245553203367585" fill="#000" ><title >n2 → seq-kv {:key "key", :msg_id 3, :type "read"}</title></rect><use xlink:href="#ahead" x="63.245553203367585" y="0" /><text text-anchor="middle" x="31.622776601683793" y="-4" transform="" filter="url(#glow)" style="fill: #fff" >read {:key "key"}</text><text text-anchor="middle" x="31.622776601683793" y="-4" transform="" >read {:key "key"}</text></g><g transform="translate(1170.0 1090.0) rotate(161.56505117707798) " ><rect x="0" y="-2.5" height="5" width="59.245553203367585" fill="#000" ><title >seq-kv → n2 {:type "read_ok", :value 3, :in_reply_to 3}</title></rect><use xlink:href="#ahead" x="63.245553203367585" y="0" /><text text-anchor="middle" x="31.622776601683793" y="-4" transform="rotate(180 31.622776601683793 0)" filter="url(#glow)" style="fill: #fff" >read_ok {:value 3}</text><text text-anchor="middle" x="31.622776601683793" y="-4" transform="rotate(180 31.622776601683793 0)" >read_ok {:value 3}</text></g><g transform="translate(270.0 1130.0) rotate(1.5911402711945872) " ><rect x="0" y="-2.5" height="5" width="716.2777242147642" fill="#81BFFC" ><title >c10 → n0 {:type "read", :msg_id 1}</title></rect><use xlink:href="#ahead" x="720.2777242147642" y="0" /><text text-anchor="middle" x="360.1388621073821" y="-4" transform="" filter="url(#glow)" style="fill: #fff" >read {}</text><text text-anchor="middle" x="360.1388621073821" y="-4" transform="" >read {}</text></g><g transform="translate(990.0 1170.0) rotate(6.340191745909909) " ><rect x="0" y="-2.5" height="5" width="177.10770276274835" fill="#000" ><title >n0 → seq-kv {:key "key", :msg_id 4, :type "read"}</title></rect><use xlink:href="#ahead" x="181.10770276274835" y="0" /><text text-anchor="middle" x="90.55385138137417" y="-4" transform="" filter="url(#glow)" style="fill: #fff" >read {:key "key"}</text><text text-anchor="middle" x="90.55385138137417" y="-4" transform="" >read {:key "key"}</text></g><g transform="translate(1170.0 1210.0) rotate(173.6598082540901) " ><rect x="0" y="-2.5" height="5" width="177.10770276274835" fill="#000" ><title >seq-kv → n0 {:type "read_ok", :value 3, :in_reply_to 4}</title></rect><use xlink:href="#ahead" x="181.10770276274835" y="0" /><text text-anchor="middle" x="90.55385138137417" y="-4" transform="rotate(180 90.55385138137417 0)" filter="url(#glow)" style="fill: #fff" >read_ok {:value 3}</text><text text-anchor="middle" x="90.55385138137417" y="-4" transform="rotate(180 90.55385138137417 0)" >read_ok {:value 3}</text></g><g transform="translate(330.0 1250.0) rotate(1.5911402711945872) " ><rect x="0" y="-2.5" height="5" width="716.2777242147642" fill="#81BFFC" ><title >c11 → n1 {:type "read", :msg_id 1}</title></rect><use xlink:href="#ahead" x="720.2777242147642" y="0" /><text text-anchor="middle" x="360.1388621073821" y="-4" transform="" filter="url(#glow)" style="fill: #fff" >read {}</text><text text-anchor="middle" x="360.1388621073821" y="-4" transform="" >read {}</text></g><g transform="translate(1050.0 1290.0) rotate(9.462322208025618) " ><rect x="0" y="-2.5" height="5" width="117.6552506059644" fill="#000" ><title >n1 → seq-kv {:key "key", :msg_id 4, :type "read"}</title></rect><use xlink:href="#ahead" x="121.6552506059644" y="0" /><text text-anchor="middle" x="60.8276253029822" y="-4" transform="" filter="url(#glow)" style="fill: #fff" >read {:key "key"}</text><text text-anchor="middle" x="60.8276253029822" y="-4" transform="" >read {:key "key"}</text></g><g transform="translate(1170.0 1330.0) rotate(170.53767779197437) " ><rect x="0" y="-2.5" height="5" width="117.6552506059644" fill="#000" ><title >seq-kv → n1 {:type "read_ok", :value 3, :in_reply_to 4}</title></rect><use xlink:href="#ahead" x="121.6552506059644" y="0" /><text text-anchor="middle" x="60.8276253029822" y="-4" transform="rotate(180 60.8276253029822 0)" filter="url(#glow)" style="fill: #fff" >read_ok {:value 3}</text><text text-anchor="middle" x="60.8276253029822" y="-4" transform="rotate(180 60.8276253029822 0)" >read_ok {:value 3}</text></g><g transform="translate(390.0 1370.0) rotate(1.5911402711945872) " ><rect x="0" y="-2.5" height="5" width="716.2777242147642" fill="#81BFFC" ><title >c12 → n2 {:delta 2, :type "add", :msg_id 1}</title></rect><use xlink:href="#ahead" x="720.2777242147642" y="0" /><text text-anchor="middle" x="360.1388621073821" y="-4" transform="" filter="url(#glow)" style="fill: #fff" >add {:delta 2}</text><text text-anchor="middle" x="360.1388621073821" y="-4" transform="" >add {:delta 2}</text></g><g transform="translate(1110.0 1410.0) rotate(18.43494882292201) " ><rect x="0" y="-2.5" height="5" width="59.245553203367585" fill="#000" ><title >n2 → seq-kv {:key "key", :msg_id 4, :type "read"}</title></rect><use xlink:href="#ahead" x="63.245553203367585" y="0" /><text text-anchor="middle" x="31.622776601683793" y="-4" transform="" filter="url(#glow)" style="fill: #fff" >read {:key "key"}</text><text text-anchor="middle" x="31.622776601683793" y="-4" transform="" >read {:key "key"}</text></g><g transform="translate(1170.0 1450.0) rotate(161.56505117707798) " ><rect x="0" y="-2.5" height="5" width="59.245553203367585" fill="#000" ><title >seq-kv → n2 {:type "read_ok", :value 3, :in_reply_to 4}</title></rect><use xlink:href="#ahead" x="63.245553203367585" y="0" /><text text-anchor="middle" x="31.622776601683793" y="-4" transform="rotate(180 31.622776601683793 0)" filter="url(#glow)" style="fill: #fff" >read_ok {:value 3}</text><text text-anchor="middle" x="31.622776601683793" y="-4" transform="rotate(180 31.622776601683793 0)" >read_ok {:value 3}</text></g><g transform="translate(450.0 1490.0) rotate(2.1210963966614536) " ><rect x="0" y="-2.5" height="5" width="536.3702434442519" fill="#81BFFC" ><title >c13 → n0 {:type "read", :msg_id 1}</title></rect><use xlink:href="#ahead" x="540.3702434442519" y="0" /><text text-anchor="middle" x="270.1851217221259" y="-4" transform="" filter="url(#glow)" style="fill: #fff" >read {}</text><text text-anchor="middle" x="270.1851217221259" y="-4" transform="" >read {}</text></g><g transform="translate(990.0 1530.0) rotate(6.340191745909909) " ><rect x="0" y="-2.5" height="5" width="177.10770276274835" fill="#000" ><title >n0 → seq-kv {:key "key", :msg_id 5, :type "read"}</title></rect><use xlink:href="#ahead" x="181.10770276274835" y="0" /><text text-anchor="middle" x="90.55385138137417" y="-4" transform="" filter="url(#glow)" style="fill: #fff" >read {:key "key"}</text><text text-anchor="middle" x="90.55385138137417" y="-4" transform="" >read {:key "key"}</text></g><g transform="translate(1170.0 1570.0) rotate(173.6598082540901) " ><rect x="0" y="-2.5" height="5" width="177.10770276274835" fill="#000" ><title >seq-kv → n0 {:type "read_ok", :value 3, :in_reply_to 5}</title></rect><use xlink:href="#ahead" x="181.10770276274835" y="0" /><text text-anchor="middle" x="90.55385138137417" y="-4" transform="rotate(180 90.55385138137417 0)" filter="url(#glow)" style="fill: #fff" >read_ok {:value 3}</text><text text-anchor="middle" x="90.55385138137417" y="-4" transform="rotate(180 90.55385138137417 0)" >read_ok {:value 3}</text></g><g transform="translate(510.0 1610.0) rotate(2.1210963966614536) " ><rect x="0" y="-2.5" height="5" width="536.3702434442519" fill="#81BFFC" ><title >c14 → n1 {:type "read", :msg_id 1}</title></rect><use xlink:href="#ahead" x="540.3702434442519" y="0" /><text text-anchor="middle" x="270.1851217221259" y="-4" transform="" filter="url(#glow)" style="fill: #fff" >read {}</text><text text-anchor="middle" x="270.1851217221259" y="-4" transform="" >read {}</text></g><g transform="translate(1050.0 1650.0) rotate(9.462322208025618) " ><rect x="0" y="-2.5" height="5" width="117.6552506059644" fill="#000" ><title >n1 → seq-kv {:key "key", :msg_id 5, :type "read"}</title></rect><use xlink:href="#ahead" x="121.6552506059644" y="0" /><text text-anchor="middle" x="60.8276253029822" y="-4" transform="" filter="url(#glow)" style="fill: #fff" >read {:key "key"}</text><text text-anchor="middle" x="60.8276253029822" y="-4" transform="" >read {:key "key"}</text></g><g transform="translate(1170.0 1690.0) rotate(170.53767779197437) " ><rect x="0" y="-2.5" height="5" width="117.6552506059644" fill="#000" ><title >seq-kv → n1 {:type "read_ok", :value 3, :in_reply_to 5}</title></rect><use xlink:href="#ahead" x="121.6552506059644" y="0" /><text text-anchor="middle" x="60.8276253029822" y="-4" transform="rotate(180 60.8276253029822 0)" filter="url(#glow)" style="fill: #fff" >read_ok {:value 3}</text><text text-anchor="middle" x="60.8276253029822" y="-4" transform="rotate(180 60.8276253029822 0)" >read_ok {:value 3}</text></g><g transform="translate(570.0 1730.0) rotate(2.1210963966614536) " ><rect x="0" y="-2.5" height="5" width="536.3702434442519" fill="#81BFFC" ><title >c15 → n2 {:type "read", :msg_id 1}</title></rect><use xlink:href="#ahead" x="540.3702434442519" y="0" /><text text-anchor="middle" x="270.1851217221259" y="-4" transform="" filter="url(#glow)" style="fill: #fff" >read {}</text><text text-anchor="middle" x="270.1851217221259" y="-4" transform="" >read {}</text></g><g transform="translate(1110.0 1770.0) rotate(18.43494882292201) " ><rect x="0" y="-2.5" height="5" width="59.245553203367585" fill="#000" ><title >n2 → seq-kv {:key "key", :msg_id 5, :type "read"}</title></rect><use xlink:href="#ahead" x="63.245553203367585" y="0" /><text text-anchor="middle" x="31.622776601683793" y="-4" transform="" filter="url(#glow)" style="fill: #fff" >read {:key "key"}</text><text text-anchor="middle" x="31.622776601683793" y="-4" transform="" >read {:key "key"}</text></g><g transform="translate(1170.0 1810.0) rotate(161.56505117707798) " ><rect x="0" y="-2.5" height="5" width="59.245553203367585" fill="#000" ><title >seq-kv → n2 {:type "read_ok", :value 3, :in_reply_to 5}</title></rect><use xlink:href="#ahead" x="63.245553203367585" y="0" /><text text-anchor="middle" x="31.622776601683793" y="-4" transform="rotate(180 31.622776601683793 0)" filter="url(#glow)" style="fill: #fff" >read_ok {:value 3}</text><text text-anchor="middle" x="31.622776601683793" y="-4" transform="rotate(180 31.622776601683793 0)" >read_ok {:value 3}</text></g><g transform="translate(630.0 1850.0) rotate(3.179830119864234) " ><rect x="0" y="-2.5" height="5" width="356.5551275463989" fill="#81BFFC" ><title >c16 → n0 {:type "read", :msg_id 1}</title></rect><use xlink:href="#ahead" x="360.5551275463989" y="0" /><text text-anchor="middle" x="180.27756377319946" y="-4" transform="" filter="url(#glow)" style="fill: #fff" >read {}</text><text text-anchor="middle" x="180.27756377319946" y="-4" transform="" >read {}</text></g><g transform="translate(990.0 1890.0) rotate(6.340191745909909) " ><rect x="0" y="-2.5" height="5" width="177.10770276274835" fill="#000" ><title >n0 → seq-kv {:key "key", :msg_id 6, :type "read"}</title></rect><use xlink:href="#ahead" x="181.10770276274835" y="0" /><text text-anchor="middle" x="90.55385138137417" y="-4" transform="" filter="url(#glow)" style="fill: #fff" >read {:key "key"}</text><text text-anchor="middle" x="90.55385138137417" y="-4" transform="" >read {:key "key"}</text></g><g transform="translate(1170.0 1930.0) rotate(173.6598082540901) " ><rect x="0" y="-2.5" height="5" width="177.10770276274835" fill="#000" ><title >seq-kv → n0 {:type "read_ok", :value 3, :in_reply_to 6}</title></rect><use xlink:href="#ahead" x="181.10770276274835" y="0" /><text text-anchor="middle" x="90.55385138137417" y="-4" transform="rotate(180 90.55385138137417 0)" filter="url(#glow)" style="fill: #fff" >read_ok {:value 3}</text><text text-anchor="middle" x="90.55385138137417" y="-4" transform="rotate(180 90.55385138137417 0)" >read_ok {:value 3}</text></g><g transform="translate(690.0 1970.0) rotate(3.179830119864234) " ><rect x="0" y="-2.5" height="5" width="356.5551275463989" fill="#81BFFC" ><title >c17 → n1 {:type "read", :msg_id 1}</title></rect><use xlink:href="#ahead" x="360.5551275463989" y="0" /><text text-anchor="middle" x="180.27756377319946" y="-4" transform="" filter="url(#glow)" style="fill: #fff" >read {}</text><text text-anchor="middle" x="180.27756377319946" y="-4" transform="" >read {}</text></g><g transform="translate(1050.0 2010.0) rotate(9.462322208025618) " ><rect x="0" y="-2.5" height="5" width="117.6552506059644" fill="#000" ><title >n1 → seq-kv {:key "key", :msg_id 6, :type "read"}</title></rect><use xlink:href="#ahead" x="121.6552506059644" y="0" /><text text-anchor="middle" x="60.8276253029822" y="-4" transform="" filter="url(#glow)" style="fill: #fff" >read {:key "key"}</text><text text-anchor="middle" x="60.8276253029822" y="-4" transform="" >read {:key "key"}</text></g><g transform="translate(1170.0 2050.0) rotate(170.53767779197437) " ><rect x="0" y="-2.5" height="5" width="117.6552506059644" fill="#000" ><title >seq-kv → n1 {:type "read_ok", :value 3, :in_reply_to 6}</title></rect><use xlink:href="#ahead" x="121.6552506059644" y="0" /><text text-anchor="middle" x="60.8276253029822" y="-4" transform="rotate(180 60.8276253029822 0)" filter="url(#glow)" style="fill: #fff" >read_ok {:value 3}</text><text text-anchor="middle" x="60.8276253029822" y="-4" transform="rotate(180 60.8276253029822 0)" >read_ok {:value 3}</text></g><g transform="translate(750.0 2090.0) rotate(3.179830119864234) " ><rect x="0" y="-2.5" height="5" width="356.5551275463989" fill="#81BFFC" ><title >c18 → n2 {:type "read", :msg_id 1}</title></rect><use xlink:href="#ahead" x="360.5551275463989" y="0" /><text text-anchor="middle" x="180.27756377319946" y="-4" transform="" filter="url(#glow)" style="fill: #fff" >read {}</text><text text-anchor="middle" x="180.27756377319946" y="-4" transform="" >read {}</text></g><g transform="translate(1110.0 2130.0) rotate(18.43494882292201) " ><rect x="0" y="-2.5" height="5" width="59.245553203367585" fill="#000" ><title >n2 → seq-kv {:key "key", :msg_id 6, :type "read"}</title></rect><use xlink:href="#ahead" x="63.245553203367585" y="0" /><text text-anchor="middle" x="31.622776601683793" y="-4" transform="" filter="url(#glow)" style="fill: #fff" >read {:key "key"}</text><text text-anchor="middle" x="31.622776601683793" y="-4" transform="" >read {:key "key"}</text></g><g transform="translate(1170.0 2170.0) rotate(161.56505117707798) " ><rect x="0" y="-2.5" height="5" width="59.245553203367585" fill="#000" ><title >seq-kv → n2 {:type "read_ok", :value 3, :in_reply_to 6}</title></rect><use xlink:href="#ahead" x="63.245553203367585" y="0" /><text text-anchor="middle" x="31.622776601683793" y="-4" transform="rotate(180 31.622776601683793 0)" filter="url(#glow)" style="fill: #fff" >read_ok {:value 3}</text><text text-anchor="middle" x="31.622776601683793" y="-4" transform="rotate(180 31.622776601683793 0)" >read_ok {:value 3}</text></g><g transform="translate(870.0 2230.0) rotate(12.528807709151511) " ><rect x="0" y="-2.5" height="5" width="180.39088914585776" fill="#81BFFC" ><title >c20 → n1 {:type "read", :msg_id 1}</title></rect><use xlink:href="#ahead" x="184.39088914585776" y="0" /><text text-anchor="middle" x="92.19544457292888" y="-4" transform="" filter="url(#glow)" style="fill: #fff" >read {}</text><text text-anchor="middle" x="92.19544457292888" y="-4" transform="" >read {}</text></g><g transform="translate(810.0 2210.0) rotate(14.931417178137552) " ><rect x="0" y="-2.5" height="5" width="306.4834939252005" fill="#81BFFC" ><title >c19 → n2 {:type "read", :msg_id 1}</title></rect><use xlink:href="#ahead" x="310.4834939252005" y="0" /><text text-anchor="middle" x="155.24174696260025" y="-4" transform="" filter="url(#glow)" style="fill: #fff" >read {}</text><text text-anchor="middle" x="155.24174696260025" y="-4" transform="" >read {}</text></g><g transform="translate(930.0 2250.0) rotate(45.0) " ><rect x="0" y="-2.5" height="5" width="80.8528137423857" fill="#81BFFC" ><title >c21 → n0 {:type "read", :msg_id 1}</title></rect><use xlink:href="#ahead" x="84.8528137423857" y="0" /><text text-anchor="middle" x="42.42640687119285" y="-4" transform="" filter="url(#glow)" style="fill: #fff" >read {}</text><text text-anchor="middle" x="42.42640687119285" y="-4" transform="" >read {}</text></g><g transform="translate(1050.0 2330.0) rotate(26.565051177077986) " ><rect x="0" y="-2.5" height="5" width="130.16407864998737" fill="#000" ><title >n1 → seq-kv {:key "key", :msg_id 7, :type "read"}</title></rect><use xlink:href="#ahead" x="134.16407864998737" y="0" /><text text-anchor="middle" x="67.08203932499369" y="-4" transform="" filter="url(#glow)" style="fill: #fff" >read {:key "key"}</text><text text-anchor="middle" x="67.08203932499369" y="-4" transform="" >read {:key "key"}</text></g><g transform="translate(990.0 2350.0) rotate(23.962488974578182) " ><rect x="0" y="-2.5" height="5" width="192.9771560359221" fill="#000" ><title >n0 → seq-kv {:key "key", :msg_id 7, :type "read"}</title></rect><use xlink:href="#ahead" x="196.9771560359221" y="0" /><text text-anchor="middle" x="98.48857801796105" y="-4" transform="" filter="url(#glow)" style="fill: #fff" >read {:key "key"}</text><text text-anchor="middle" x="98.48857801796105" y="-4" transform="" >read {:key "key"}</text></g><g transform="translate(1170.0 2410.0) rotate(161.56505117707798) " ><rect x="0" y="-2.5" height="5" width="122.49110640673517" fill="#000" ><title >seq-kv → n1 {:type "read_ok", :value 3, :in_reply_to 7}</title></rect><use xlink:href="#ahead" x="126.49110640673517" y="0" /><text text-anchor="middle" x="63.245553203367585" y="-4" transform="rotate(180 63.245553203367585 0)" filter="url(#glow)" style="fill: #fff" >read_ok {:value 3}</text><text text-anchor="middle" x="63.245553203367585" y="-4" transform="rotate(180 63.245553203367585 0)" >read_ok {:value 3}</text></g><g transform="translate(1110.0 2370.0) rotate(63.43494882292201) " ><rect x="0" y="-2.5" height="5" width="130.16407864998737" fill="#000" ><title >n2 → seq-kv {:key "key", :msg_id 7, :type "read"}</title></rect><use xlink:href="#ahead" x="134.16407864998737" y="0" /><text text-anchor="middle" x="67.08203932499369" y="-4" transform="" filter="url(#glow)" style="fill: #fff" >read {:key "key"}</text><text text-anchor="middle" x="67.08203932499369" y="-4" transform="" >read {:key "key"}</text></g><g transform="translate(1170.0 2470.0) rotate(167.4711922908485) " ><rect x="0" y="-2.5" height="5" width="180.39088914585776" fill="#000" ><title >seq-kv → n0 {:type "read_ok", :value 3, :in_reply_to 7}</title></rect><use xlink:href="#ahead" x="184.39088914585776" y="0" /><text text-anchor="middle" x="92.19544457292888" y="-4" transform="rotate(180 92.19544457292888 0)" filter="url(#glow)" style="fill: #fff" >read_ok {:value 3}</text><text text-anchor="middle" x="92.19544457292888" y="-4" transform="rotate(180 92.19544457292888 0)" >read_ok {:value 3}</text></g><g transform="translate(1170.0 2530.0) rotate(161.56505117707798) " ><rect x="0" y="-2.5" height="5" width="59.245553203367585" fill="#000" ><title >seq-kv → n2 {:type "read_ok", :value 3, :in_reply_to 7}</title></rect><use xlink:href="#ahead" x="63.245553203367585" y="0" /><text text-anchor="middle" x="31.622776601683793" y="-4" transform="rotate(180 31.622776601683793 0)" filter="url(#glow)" style="fill: #fff" >read_ok {:value 3}</text><text text-anchor="middle" x="31.622776601683793" y="-4" transform="rotate(180 31.622776601683793 0)" >read_ok {:value 3}</text></g></g></svg>